<!DOCTYPE svg PUBLIC "-//W3C//DTD SVG 1.1//EN" "http://www.w3.org/Graphics/SVG/1.1/DTD/svg11.dtd">
<!-- Uploaded to: SVG Repo, www.svgrepo.com, Transformed by: SVG Repo Mixer Tools -->
<svg version="1.1" id="Icons" xmlns="http://www.w3.org/2000/svg" xmlns:xlink="http://www.w3.org/1999/xlink" viewBox="-3.2 -3.2 38.40 38.40" xml:space="preserve" width="800px" height="800px" fill="#ffffff" stroke="#ffffff">
<g id="SVGRepo_bgCarrier" stroke-width="0" transform="translate(1.1199999999999992,1.1199999999999992), scale(0.93)">
<rect x="-3.2" y="-3.2" width="38.40" height="38.40" rx="19.2" fill="#cb6ce5" strokewidth="0"/>
</g>
<g id="SVGRepo_tracerCarrier" stroke-linecap="round" stroke-linejoin="round" stroke="#CCCCCC" stroke-width="0.384"/>
<g id="SVGRepo_iconCarrier"> <style type="text/css"> .st0{fill:none;stroke:#ffffff;stroke-width:0.992;stroke-linecap:round;stroke-linejoin:round;stroke-miterlimit:10;} </style> <path class="st0" d="M18,29H8c-2.2,0-4-1.8-4-4V7c0-2.2,1.8-4,4-4h10c2.2,0,4,1.8,4,4v18C22,27.2,20.2,29,18,29z"/> <path class="st0" d="M22,6.4l5,3c1.9,1.1,2.5,3.6,1.3,5.5L22,25.5"/> <path class="st0" d="M28,16l0.5,0.7c1.3,1.8,0.8,4.3-1,5.6l-5.7,4"/> <line class="st0" x1="8" y1="7" x2="8" y2="9"/> <line class="st0" x1="18" y1="23" x2="18" y2="25"/> <path class="st0" d="M10.4,16.6c0.5,0.5,1.3,0.5,1.8,0l0.8-0.8l0.8,0.8c0.5,0.5,1.3,0.5,1.8,0c0.5-0.5,0.5-1.4,0-1.9l-0.8-0.8L13,12 l-1.8,1.9l-0.8,0.8C9.9,15.2,9.9,16.1,10.4,16.6z"/> <line class="st0" x1="12" y1="20" x2="14" y2="20"/> <line class="st0" x1="13" y1="17" x2="13" y2="19"/> </g>
</svg>