<?xml version="1.0" encoding="iso-8859-1"?>
<!-- Generator: Adobe Illustrator 18.0.0, SVG Export Plug-In . SVG Version: 6.00 Build 0)  -->
<!DOCTYPE svg PUBLIC "-//W3C//DTD SVG 1.1//EN" "http://www.w3.org/Graphics/SVG/1.1/DTD/svg11.dtd">
<svg version="1.1" id="Capa_1" xmlns="http://www.w3.org/2000/svg" xmlns:xlink="http://www.w3.org/1999/xlink" x="0px" y="0px"
	 viewBox="0 0 187.365 187.365" style="enable-background:new 0 0 187.365 187.365;" xml:space="preserve">
<g>
	<defs>
		<path id="SVGID_1_" d="M185.993,109.57c-8.773,50.981-57.217,85.197-108.199,76.423C26.816,177.218-7.401,128.776,1.372,77.794
			c8.775-50.98,57.217-85.196,108.197-76.422C160.552,10.147,194.767,58.589,185.993,109.57z"/>
	</defs>
	<clipPath id="SVGID_2_">
		<use xlink:href="#SVGID_1_"  style="overflow:visible;"/>
	</clipPath>
	<path style="clip-path:url(#SVGID_2_);fill:#EA347F;" d="M185.993,109.57c-8.773,50.981-57.217,85.197-108.199,76.423
		C26.816,177.218-7.401,128.776,1.372,77.794c8.775-50.98,57.217-85.196,108.197-76.422
		C160.552,10.147,194.767,58.589,185.993,109.57z"/>
	<g style="clip-path:url(#SVGID_2_);">
		<path style="fill:#F2E5AD;" d="M84.188,69.696c0.367,1.251,0.74,2.5,1.125,3.744c1.808,5.82,1.871,10.674-1.061,16.029
			c-0.02,0.037-0.041,0.071-0.064,0.107V69.696z"/>
		<path style="fill:#F2E5AD;" d="M161.724,116.459c-3.345-27.599-8.605-59.013-27.137-82.25
			c-17.624-22.102-64.624-22.102-83.689-0.839c-19.841,22.129-20.656,52.077-23.5,79.733c-1.641,15.947,11.301,25.945,17.724,20.236
			c-13.118,10.435-1.988,31.242,8.813,31.776c0.391-0.077,8.038-0.283,8.849,0.108c4.932,2.394,11.384,2.105,16.602,3.89
			c4.703,1.608,9.186,3.548,14.075,4.36v0.093c0.09-0.013,0.175-0.033,0.261-0.047c0.086,0.014,0.172,0.034,0.261,0.047v-0.093
			c4.891-0.813,9.372-2.752,14.074-4.36c5.219-1.785,11.672-1.497,16.604-3.89c0.809-0.393,8.456-0.185,8.847-0.108
			c10.802-0.534,21.933-21.341,8.813-31.777C148.742,139.047,163.962,134.924,161.724,116.459z"/>
		<g>
			
				<ellipse transform="matrix(0.9926 -0.1218 0.1218 0.9926 -11.039 17.68)" style="fill:#FFB37F;" cx="139.063" cy="99.114" rx="11.471" ry="14.268"/>
			
				<ellipse transform="matrix(0.9987 -0.051 0.051 0.9987 -4.996 2.4985)" style="fill:#F29555;" cx="46.462" cy="99.149" rx="11.471" ry="14.268"/>
		</g>
		<g>
			<path style="fill:#FFB37F;" d="M83.764,145.131c-1.883-3.573-6.307-4.942-9.879-3.059c-0.457,0.241-11.351,6.055-22.079,18.079
				c-6.066,6.798-11.122,14.74-14.863,23.206h20.252c1.776-1.278,3.687-2.747,5.671-5c8.951-10.17,17.687-23.265,17.856-23.356
				C84.281,153.113,85.643,148.699,83.764,145.131z"/>
			<path style="fill:#FFC695;" d="M132.439,184.357h20.756c-3.913-9.089-9.245-17.503-16.146-24.855
				c-11.029-11.75-22.064-17.284-22.53-17.515c-3.619-1.792-8.005-0.312-9.799,3.309c-1.787,3.614-0.313,7.992,3.293,9.791
				c0.171,0.085,8.648,14.331,17.854,24.271C128.154,181.83,130.38,183.199,132.439,184.357z"/>
		</g>
		<path style="fill:#F29555;" d="M132.21,193.326c-1.056-32.938-7.035-41.67-12.046-47.136c-4.145-4.521-18.255-11.345-25.66-9.357
			c-7.405-1.988-21.516,4.836-25.66,9.357c-5.011,5.466-8.738,14.199-8.98,47.136H132.21z"/>
		<path style="fill:#FFD4DD;" d="M132.21,193.326c-1.056-32.938-7.035-41.67-12.046-47.136c-0.885-0.965-2.229-2.036-3.861-3.105
			c-4.587,6.527-12.161,10.862-20.604,10.862c-8.881,0-16.809-4.801-21.3-11.908c-2.4,1.399-4.38,2.868-5.555,4.15
			c-5.011,5.466-8.738,14.199-8.98,47.136H132.21z"/>
		<g>
			<g>
				<path style="fill:#FFC695;" d="M95.35,39.736c-12.668,0.587-25.811,4.079-35.25,10.522
					c-13.906,9.492-19.019,29.317-16.988,44.479c5.34,39.902,43.596,48.706,52.238,49.402V39.736z"/>
				<path style="fill:#FFC695;" d="M94.498,39.736c12.665,0.587,24.973,4.079,34.41,10.522c13.906,9.492,16.246,29.21,15.31,44.479
					c-1.269,20.674-23.649,48.65-49.721,49.402V39.736z"/>
			</g>
		</g>
		<g>
			<circle style="fill:#333331;" cx="69.22" cy="95.708" r="5.444"/>
			<circle style="fill:#333331;" cx="119.787" cy="95.708" r="5.445"/>
		</g>
		<path style="fill:#F29555;" d="M102.337,108.727c0,2.317-1.96,4.197-4.377,4.197h-6.914c-2.417,0-4.377-1.88-4.377-4.197l0,0
			c0-2.317,1.96-4.196,4.377-4.196h6.914C100.377,104.531,102.337,106.41,102.337,108.727L102.337,108.727z"/>
		<path style="fill:#F29555;" d="M105.864,118.258c-1.375-0.17-2.623,0.797-2.807,2.164c-0.097,0.654-1.117,5.856-8.556,6.21
			c-7.437-0.354-8.457-5.556-8.554-6.21c-0.183-1.367-1.433-2.334-2.807-2.164c-1.381,0.172-2.359,1.431-2.188,2.811
			c0.455,3.641,3.884,10.162,13.408,10.577v0.02c0.052-0.002,0.094-0.009,0.141-0.01c0.049,0.001,0.093,0.008,0.142,0.01v-0.02
			c9.525-0.415,12.954-6.936,13.409-10.577C108.224,119.689,107.245,118.43,105.864,118.258z"/>
		<path style="fill:#FCF2C8;" d="M94.021,26.095c-18.454-0.587-34.724,6.075-43.979,22.619
			c-5.952,10.634-10.087,25.275-9.393,37.479c0.509,8.943,9.068,15.072,15.102,5.758c3.258-5.031,2.44-11.446,2.854-17.119
			c4.405,7.461,17.548-1.736,16.647-9.374c9.888,8.221,27.403,5.248,38.209,0.363c0.5-0.227,0.999-0.469,1.487-0.724
			c28.014,7.385,29.271,29.64,29.271,29.64S155.569,28.053,94.021,26.095z"/>
		<g>
			<polygon style="fill:#FF789F;" points="111.735,179.521 112.704,153.868 96.598,162.553 96.522,161.968 80.701,152.468 
				80.484,178.139 96.617,169.191 			"/>
			<rect x="92.677" y="159.543" style="fill:#FFABBF;" width="7.832" height="12.31"/>
		</g>
	</g>
</g>
<g>
</g>
<g>
</g>
<g>
</g>
<g>
</g>
<g>
</g>
<g>
</g>
<g>
</g>
<g>
</g>
<g>
</g>
<g>
</g>
<g>
</g>
<g>
</g>
<g>
</g>
<g>
</g>
<g>
</g>
</svg>
