<?xml version="1.0" encoding="iso-8859-1"?>
<!-- Generator: Adobe Illustrator 18.0.0, SVG Export Plug-In . SVG Version: 6.00 Build 0)  -->
<!DOCTYPE svg PUBLIC "-//W3C//DTD SVG 1.1//EN" "http://www.w3.org/Graphics/SVG/1.1/DTD/svg11.dtd">
<svg version="1.1" id="Capa_1" xmlns="http://www.w3.org/2000/svg" xmlns:xlink="http://www.w3.org/1999/xlink" x="0px" y="0px"
	 viewBox="0 0 187.334 187.334" style="enable-background:new 0 0 187.334 187.334;" xml:space="preserve">
<g>
	<defs>
		<circle id="SVGID_1_" cx="93.667" cy="93.667" r="93.667"/>
	</defs>
	<clipPath id="SVGID_2_">
		<use xlink:href="#SVGID_1_"  style="overflow:visible;"/>
	</clipPath>
	<circle style="clip-path:url(#SVGID_2_);fill:#65C835;" cx="93.667" cy="93.667" r="93.667"/>
	<g style="clip-path:url(#SVGID_2_);">
		<g>
			<path style="fill:#FFB37F;" d="M52.596,190.731c1.328-2.083,2.738-4.112,4.227-6.077c9.919-13.097,20.635-19.991,20.831-20.115
				c4.138-2.601,5.392-8.061,2.8-12.208c-2.596-4.154-8.068-5.415-12.221-2.821c-0.533,0.333-13.187,8.335-25.091,23.833
				c-4.125,5.371-7.761,11.228-10.83,17.387H52.596z"/>
			<path style="fill:#FFC695;" d="M106.127,164.26c0.194,0.124,10.91,7.018,20.83,20.115c1.559,2.06,3.022,4.182,4.393,6.357h20.16
				c-2.992-6.19-6.601-12.108-10.872-17.667c-11.904-15.498-24.559-23.5-25.092-23.833c-4.152-2.595-9.624-1.334-12.22,2.82
				C100.735,156.199,101.989,161.659,106.127,164.26z"/>
		</g>
		<path style="fill:#F29555;" d="M131.306,190.731c-2.032-25.124-7.444-32.817-12.073-37.866
			c-4.379-4.776-19.289-11.988-27.115-9.887c-7.825-2.101-22.735,5.111-27.114,9.887c-4.63,5.049-10.042,12.742-12.074,37.866
			H131.306z"/>
		<g>
			<g>
				
					<ellipse transform="matrix(0.9926 -0.1218 0.1218 0.9926 -10.6288 18.4366)" style="fill:#FFB37F;" cx="145.452" cy="96.136" rx="12.12" ry="15.076"/>
				
					<ellipse transform="matrix(0.9998 -0.0177 0.0177 0.9998 -1.6948 0.7001)" style="fill:#F29555;" cx="38.735" cy="96.173" rx="12.12" ry="15.076"/>
			</g>
			<g>
				<path style="fill:#C6DFE0;" d="M52.609,190.731c1.327-2.081,2.727-4.114,4.214-6.077c9.919-13.097,20.635-19.991,20.831-20.115
					c0.145-0.09,0.277-0.193,0.415-0.291c-5.377-2.883-7.925-9.332-10.344-14.961c-4.25,3.031-16.406,11.367-25.471,23.17
					c-2.539,3.306-4.888,6.798-7.04,10.428c3.18,2.373,6.74,5.153,10.136,7.846H52.609z"/>
				<path style="fill:#C6DFE0;" d="M126.958,184.374c1.559,2.06,3.021,4.182,4.39,6.357h18.162c0.859-0.549,1.712-1.084,2.539-1.586
					c-2.925-5.936-6.415-11.619-10.524-16.967c-11.661-15.183-24.922-22.278-25.923-22.911c-1.98,5.727-5.885,10.615-10.916,13.865
					c0.433,0.416,0.913,0.796,1.441,1.128C106.321,164.384,117.038,171.278,126.958,184.374z"/>
			</g>
			<path style="fill:#E1F7F9;" d="M132.11,190.731c-1.81-26.16-8.188-32.749-12.877-37.866c-1.476-1.61-4.15-3.496-7.344-5.209
				c-4.905,6.214-12.481,10.262-20.864,10.262c-8.001,0-15.266-3.688-20.176-9.425c-2.526,1.475-4.607,3.02-5.845,4.372
				c-4.691,5.117-10.663,11.706-12.544,37.866H132.11z"/>
			<g>
				<path style="fill:#FFC695;" d="M93.011,40.379C79.627,41,65.737,44.689,55.765,51.496C41.07,61.527,39.555,82.428,37.813,98.497
					c-1.84,16.964-0.9,34.244,14.605,44.342c10.811,7.041,27.897,6.837,40.594,7.86V40.379z"/>
				<path style="fill:#FFC695;" d="M92.111,40.379c13.386,0.621,26.387,4.31,36.36,11.117c14.694,10.03,16.209,30.931,17.952,47.001
					c1.839,16.964,0.901,34.244-14.604,44.342c-10.811,7.041-27.012,6.837-39.708,7.86V40.379z"/>
			</g>
		</g>
		<path style="fill:#74320A;" d="M92.118,23.398c-3.843-0.224-56.068,3.068-53.973,57.701c0,0,5.717,12.363,5.723,12.375
			c-1.182-7.095,7.349-15.628,10.226-18.353c13.955-13.222,26.539,0.949,39.655,6.829c10.058,4.51,21.852,7.65,32.645,3.856
			c2.637-0.927,5.844-2.735,8.509-5.031c4.663,6.759,5.465,12.699,5.465,12.699l5.723-12.375
			C148.185,26.467,95.959,23.175,92.118,23.398z"/>
		<g>
			<circle style="fill:#333331;" cx="65.402" cy="102.183" r="5.753"/>
			<circle style="fill:#333331;" cx="118.833" cy="102.183" r="5.753"/>
		</g>
		<path style="fill:#F29555;" d="M102.168,114.759c0,3.101-2.514,5.617-5.616,5.617h-8.869c-3.102,0-5.617-2.516-5.617-5.617l0,0
			c0-3.103,2.515-5.617,5.617-5.617h8.869C99.654,109.142,102.168,111.656,102.168,114.759L102.168,114.759z"/>
		<path style="fill:#F29555;" d="M104.124,126.012c-1.454-0.181-2.773,0.841-2.966,2.287c-0.104,0.69-1.182,6.187-9.04,6.561
			c-7.858-0.374-8.936-5.87-9.04-6.561c-0.193-1.445-1.513-2.468-2.966-2.287c-1.458,0.183-2.492,1.512-2.31,2.971
			c0.482,3.846,4.103,10.738,14.169,11.175v0.021c0.051-0.001,0.097-0.009,0.148-0.012c0.051,0.003,0.097,0.01,0.148,0.012v-0.021
			c10.065-0.437,13.687-7.329,14.168-11.175C106.616,127.524,105.582,126.195,104.124,126.012z"/>
	</g>
</g>
<g>
</g>
<g>
</g>
<g>
</g>
<g>
</g>
<g>
</g>
<g>
</g>
<g>
</g>
<g>
</g>
<g>
</g>
<g>
</g>
<g>
</g>
<g>
</g>
<g>
</g>
<g>
</g>
<g>
</g>
</svg>
