<?xml version="1.0" encoding="iso-8859-1"?>
<!-- Generator: Adobe Illustrator 18.0.0, SVG Export Plug-In . SVG Version: 6.00 Build 0)  -->
<!DOCTYPE svg PUBLIC "-//W3C//DTD SVG 1.1//EN" "http://www.w3.org/Graphics/SVG/1.1/DTD/svg11.dtd">
<svg version="1.1" id="Capa_1" xmlns="http://www.w3.org/2000/svg" xmlns:xlink="http://www.w3.org/1999/xlink" x="0px" y="0px"
	 viewBox="0 0 187.366 187.366" style="enable-background:new 0 0 187.366 187.366;" xml:space="preserve">
<g>
	<defs>
		<circle id="SVGID_1_" cx="93.683" cy="93.682" r="93.668"/>
	</defs>
	<clipPath id="SVGID_2_">
		<use xlink:href="#SVGID_1_"  style="overflow:visible;"/>
	</clipPath>
	<circle style="clip-path:url(#SVGID_2_);fill:#FF9166;" cx="93.683" cy="93.682" r="93.668"/>
	<polygon style="clip-path:url(#SVGID_2_);fill:#6BB9BF;" points="59.675,196.326 62.592,171.036 47.522,194.647 48.909,195.654 
		48.421,196.326 	"/>
	<path style="clip-path:url(#SVGID_2_);fill:#6BB9BF;" d="M146.378,195.654l1.187-0.861l-1.696-3.011l-12.842-20.226l1.91,16.671
		c0.289,2.523,0.536,5.247,0.744,8.1h11.185L146.378,195.654z"/>
	<g style="clip-path:url(#SVGID_2_);">
		<path style="fill:#562307;" d="M41.479,180.128l109.329-1.121c0,0,46.256-155.583-58.027-155.583
			C-8.984,23.424,41.479,180.128,41.479,180.128z"/>
		<g>
			<g>
				<path style="fill:#FFB37F;" d="M56.118,189.576c1.838-3.43,3.955-6.711,6.299-9.805c8.195-10.822,17.051-16.518,17.212-16.621
					c3.418-2.149,4.455-6.661,2.313-10.087c-2.146-3.432-6.666-4.475-10.097-2.33c-0.44,0.274-10.896,6.887-20.734,19.692
					c-4.461,5.809-8.234,12.301-11.162,19.151H56.118z"/>
				<path style="fill:#FFC695;" d="M113.246,163.151c0.161,0.101,9.017,5.798,17.213,16.62c2.355,3.109,4.453,6.386,6.271,9.805
					h16.059c-2.813-6.778-6.464-13.212-11.026-19.15c-9.837-12.807-20.293-19.417-20.732-19.693
					c-3.433-2.145-7.953-1.102-10.098,2.331C108.791,156.49,109.827,161.001,113.246,163.151z"/>
			</g>
			<path style="fill:#F29555;" d="M133.337,189.576c-1.86-24.628-7.076-32.059-11.528-36.915
				c-4.152-4.53-18.291-11.369-25.712-9.376c-7.421-1.993-21.561,4.846-25.712,9.376c-4.45,4.856-7.894,12.287-8.785,36.915H133.337
				z"/>
			<path style="fill:#FF0000;" d="M133.088,189.576c-0.253-5.164-0.679-9.585-1.327-13.371c0,0-5.622-6.731-35.897-6.169
				c-26.066,0.484-33.379,6.169-33.379,6.169c-0.397,3.786-0.695,8.206-0.882,13.371H133.088z"/>
			<g>
				<path style="fill:#3281A0;" d="M57.107,189.576l4.469-7.002l-0.809,7.002h15.474v-40.845c0,0-19.623,4.485-33.359,31.677
					l11.893,9.168H57.107z"/>
				<polygon style="fill:#4198C4;" points="59.057,189.576 59.411,189.086 41.713,176.244 36.446,183.505 44.811,189.576 				"/>
				<polygon style="fill:#4198C4;" points="80.206,189.576 80.206,145.086 72.833,147.61 72.833,189.576 				"/>
			</g>
			<g>
				<path style="fill:#3281A0;" d="M133.253,189.576l-0.807-7.002l4.469,7.002h2.333l11.893-9.168
					c-13.737-27.192-33.36-31.677-33.36-31.677v40.845H133.253z"/>
				<polygon style="fill:#4198C4;" points="149.211,189.576 157.576,183.505 152.308,176.244 134.611,189.086 134.966,189.576 				
					"/>
				<polygon style="fill:#4198C4;" points="121.187,189.576 121.187,147.61 113.814,145.086 113.814,189.576 				"/>
			</g>
			<g>
				<g>
					<path style="fill:#FFC695;" d="M96.945,45.991C84.251,46.58,71.08,50.078,61.623,56.534
						c-13.934,9.511-19.059,29.377-17.023,44.57c5.353,39.983,43.686,48.805,52.345,49.502V45.991z"/>
					<path style="fill:#FFC695;" d="M96.09,45.991c12.692,0.588,25.023,4.087,34.481,10.543c13.934,9.511,16.28,29.27,15.341,44.57
						c-1.271,20.716-23.698,48.748-49.822,49.502V45.991z"/>
				</g>
			</g>
			<g>
				<circle style="fill:#333331;" cx="70.762" cy="102.077" r="5.456"/>
				<circle style="fill:#333331;" cx="121.432" cy="102.077" r="5.456"/>
			</g>
			<path style="fill:#F29555;" d="M103.946,115.123c0,2.322-1.964,4.205-4.386,4.205h-6.927c-2.423,0-4.386-1.882-4.386-4.205l0,0
				c0-2.322,1.963-4.205,4.386-4.205h6.927C101.982,110.918,103.946,112.801,103.946,115.123L103.946,115.123z"/>
			<path style="fill:#FF0000;" d="M107.482,124.674c-1.377-0.171-2.63,0.798-2.814,2.168c-0.096,0.656-1.118,5.867-8.57,6.222
				c-7.453-0.355-8.476-5.566-8.572-6.222c-0.184-1.37-1.436-2.339-2.813-2.168c-1.383,0.173-2.364,1.434-2.192,2.816
				c0.457,3.649,3.892,10.183,13.437,10.598v0.02c0.05-0.001,0.093-0.008,0.142-0.01c0.049,0.001,0.091,0.008,0.14,0.01v-0.02
				c9.545-0.416,12.98-6.949,13.437-10.598C109.846,126.108,108.865,124.846,107.482,124.674z"/>
		</g>
		<path style="fill:#74320A;" d="M70.915,68.838c0,0,33.639,31.117,76.53,25.229c0,0,4.204-57.188-52.982-57.188
			c-57.188,0-49.242,47.727-49.242,47.727S55.777,82.294,70.915,68.838z"/>
		<polygon style="fill:#FF0000;" points="72.388,63.294 61.993,39.765 51.303,54.659 50.978,54.165 32.554,52.559 43.632,75.775 
			54.234,60.63 		"/>
	</g>
</g>
<g>
</g>
<g>
</g>
<g>
</g>
<g>
</g>
<g>
</g>
<g>
</g>
<g>
</g>
<g>
</g>
<g>
</g>
<g>
</g>
<g>
</g>
<g>
</g>
<g>
</g>
<g>
</g>
<g>
</g>
</svg>
